<svg width="36" height="37" viewBox="0 0 36 37" fill="none" xmlns="http://www.w3.org/2000/svg">
<path opacity="0.5" d="M4.5 12.8477C4.5 8.60502 4.5 6.4837 5.81802 5.16568C7.13604 3.84766 9.25736 3.84766 13.5 3.84766H22.5C26.7426 3.84766 28.864 3.84766 30.182 5.16568C31.5 6.4837 31.5 8.60502 31.5 12.8477V24.8477C31.5 29.0903 31.5 31.2116 30.182 32.5296C28.864 33.8477 26.7426 33.8477 22.5 33.8477H13.5C9.25736 33.8477 7.13604 33.8477 5.81802 32.5296C4.5 31.2116 4.5 29.0903 4.5 24.8477V12.8477Z" fill="#006466"/>
<path fill-rule="evenodd" clip-rule="evenodd" d="M13.125 3.86621V33.8645H10.875V3.86621H13.125Z" fill="#006466"/>
<path fill-rule="evenodd" clip-rule="evenodd" d="M1.875 12.8477C1.875 12.2263 2.37868 11.7227 3 11.7227H6C6.62132 11.7227 7.125 12.2263 7.125 12.8477C7.125 13.469 6.62132 13.9727 6 13.9727H3C2.37868 13.9727 1.875 13.469 1.875 12.8477ZM1.875 18.8477C1.875 18.2263 2.37868 17.7227 3 17.7227H6C6.62132 17.7227 7.125 18.2263 7.125 18.8477C7.125 19.469 6.62132 19.9727 6 19.9727H3C2.37868 19.9727 1.875 19.469 1.875 18.8477ZM1.875 24.8477C1.875 24.2263 2.37868 23.7227 3 23.7227H6C6.62132 23.7227 7.125 24.2263 7.125 24.8477C7.125 25.469 6.62132 25.9727 6 25.9727H3C2.37868 25.9727 1.875 25.469 1.875 24.8477Z" fill="#006466"/>
<path d="M16.125 10.5977C16.125 9.97634 16.6287 9.47266 17.25 9.47266H24.75C25.3713 9.47266 25.875 9.97634 25.875 10.5977C25.875 11.219 25.3713 11.7227 24.75 11.7227H17.25C16.6287 11.7227 16.125 11.219 16.125 10.5977Z" fill="#006466"/>
<path d="M16.125 15.8477C16.125 15.2263 16.6287 14.7227 17.25 14.7227H24.75C25.3713 14.7227 25.875 15.2263 25.875 15.8477C25.875 16.469 25.3713 16.9727 24.75 16.9727H17.25C16.6287 16.9727 16.125 16.469 16.125 15.8477Z" fill="#006466"/>
</svg>
