<svg width="38" height="38" viewBox="0 0 38 38" fill="none" xmlns="http://www.w3.org/2000/svg">
<path fill-rule="evenodd" clip-rule="evenodd" d="M10.9452 17.0424L13.1656 18.7651C15.999 20.9633 17.4157 22.0625 19.0439 22.0056C20.6722 21.9487 22.0088 20.7535 24.6819 18.3629L26.7767 16.4896C27.2917 16.029 27.5493 15.7987 27.6802 15.4916C27.8112 15.1845 27.7992 14.8392 27.7751 14.1487L27.667 11.0557C27.6503 10.575 27.6346 10.1271 27.6173 9.70912C27.507 7.05473 27.3274 5.6115 26.346 4.69626C25.2099 3.63691 23.4432 3.6986 19.9099 3.82199L16.9117 3.92669C13.3783 4.05008 11.6116 4.11177 10.5523 5.24778C9.63704 6.22926 9.55582 7.6816 9.63099 10.3372C9.64282 10.7553 9.66123 11.2032 9.67801 11.6839L9.78602 14.7769C9.81014 15.4674 9.82219 15.8127 9.97427 16.1099C10.1264 16.4071 10.3993 16.6189 10.9452 17.0424ZM14.4976 10.0146C14.4759 9.39371 14.9617 8.87276 15.5826 8.85107L21.579 8.64167C22.1999 8.61999 22.7209 9.10579 22.7425 9.72673C22.7642 10.3477 22.2784 10.8686 21.6575 10.8903L15.6611 11.0997C15.0402 11.1214 14.5192 10.6356 14.4976 10.0146ZM16.1537 14.4596C16.132 13.8386 16.6178 13.3177 17.2388 13.296L20.2369 13.1913C20.8579 13.1696 21.3788 13.6554 21.4005 14.2763C21.4222 14.8973 20.9364 15.4182 20.3154 15.4399L17.3173 15.5446C16.6963 15.5663 16.1754 15.0805 16.1537 14.4596Z" fill="#006466"/>
<path opacity="0.5" d="M13.1655 18.765L10.9451 17.0423C10.3992 16.6188 10.1263 16.407 9.97418 16.1098C9.8221 15.8125 9.81004 15.4673 9.78593 14.7767L9.67792 11.6837C9.6722 11.5199 9.66629 11.3598 9.66051 11.2034C9.64935 10.9012 9.6387 10.6127 9.6309 10.3371C7.68874 10.5969 6.39203 11.0757 5.44708 12.089C3.75212 13.9066 3.85088 16.7346 4.0483 22.388C4.24572 28.0414 4.34443 30.8681 6.16205 32.5631C7.97967 34.258 10.8064 34.1593 16.4598 33.9619L22.4561 33.7525C28.1095 33.5551 30.9362 33.4563 32.6312 31.6387C34.3262 29.8211 34.2274 26.9944 34.03 21.341C33.8326 15.6876 33.7338 12.8596 31.9162 11.1647C30.9023 10.2192 29.5745 9.83185 27.6171 9.70842C27.6345 10.1264 27.6502 10.5749 27.667 11.0556L27.775 14.1485C27.7991 14.8391 27.8111 15.1844 27.6802 15.4915C27.5492 15.7986 27.2917 16.0289 26.7766 16.4895L24.6818 18.3628C22.0087 20.7533 20.6721 21.9486 19.0438 22.0055C17.4156 22.0623 15.9989 20.9632 13.1655 18.765Z" fill="#006466"/>
</svg>
