<svg width="36" height="37" viewBox="0 0 36 37" fill="none" xmlns="http://www.w3.org/2000/svg">
<path opacity="0.5" d="M31.5 24.8451V15.845C31.5 11.6024 31.5 9.48109 30.182 8.16307C29.0294 7.01049 27.2625 6.86582 24 6.84766H12C8.73746 6.86582 6.9706 7.01049 5.81802 8.16307C4.5 9.48109 4.5 11.6024 4.5 15.845V24.8451C4.5 29.0877 4.5 31.209 5.81802 32.527C7.13604 33.8451 9.25736 33.8451 13.5 33.8451H22.5C26.7426 33.8451 28.864 33.8451 30.182 32.527C31.5 31.209 31.5 29.0877 31.5 24.8451Z" fill="#006466"/>
<path d="M12 6.09766C12 4.85502 13.0074 3.84766 14.25 3.84766H21.75C22.9926 3.84766 24 4.85502 24 6.09766V7.59766C24 8.8403 22.9926 9.84766 21.75 9.84766H14.25C13.0074 9.84766 12 8.8403 12 7.59766V6.09766Z" fill="#006466"/>
<path fill-rule="evenodd" clip-rule="evenodd" d="M9.375 16.5977C9.375 15.9763 9.87868 15.4727 10.5 15.4727H25.5C26.1213 15.4727 26.625 15.9763 26.625 16.5977C26.625 17.219 26.1213 17.7227 25.5 17.7227H10.5C9.87868 17.7227 9.375 17.219 9.375 16.5977ZM10.875 21.8477C10.875 21.2263 11.3787 20.7227 12 20.7227H24C24.6213 20.7227 25.125 21.2263 25.125 21.8477C25.125 22.469 24.6213 22.9727 24 22.9727H12C11.3787 22.9727 10.875 22.469 10.875 21.8477ZM12.375 27.0977C12.375 26.4763 12.8787 25.9727 13.5 25.9727H22.5C23.1213 25.9727 23.625 26.4763 23.625 27.0977C23.625 27.719 23.1213 28.2227 22.5 28.2227H13.5C12.8787 28.2227 12.375 27.719 12.375 27.0977Z" fill="#006466"/>
</svg>
