<svg width="36" height="37" viewBox="0 0 36 37" fill="none" xmlns="http://www.w3.org/2000/svg">
<path opacity="0.5" d="M3 10.5516C3 9.22778 3 8.56588 3.10403 8.01453C3.56196 5.58742 5.46046 3.68891 7.88758 3.23098C8.43893 3.12695 9.10082 3.12695 10.4246 3.12695C11.0046 3.12695 11.2946 3.12695 11.5734 3.15302C12.775 3.26538 13.9148 3.73751 14.8439 4.50773C15.0594 4.68637 15.2645 4.89144 15.6746 5.30157L16.5 6.12695C17.7237 7.35062 18.3355 7.96246 19.0682 8.37009C19.4707 8.59402 19.8976 8.77086 20.3405 8.89712C21.1468 9.12695 22.0121 9.12695 23.7426 9.12695H24.3031C28.2517 9.12695 30.226 9.12695 31.5093 10.2812C31.6273 10.3873 31.7396 10.4997 31.8458 10.6177C33 11.901 33 13.8753 33 17.8238V21.127C33 26.7838 33 29.6122 31.2426 31.3696C29.4853 33.127 26.6569 33.127 21 33.127H15C9.34315 33.127 6.51472 33.127 4.75736 31.3696C3 29.6122 3 26.7838 3 21.127V10.5516Z" fill="#006466"/>
<path d="M30.0001 9.48322C29.9987 9.0372 29.9924 8.77091 29.9619 8.53959C29.6961 6.52028 28.1071 4.9313 26.0878 4.66545C25.7954 4.62695 25.447 4.62695 24.7504 4.62695H14.9824C15.1563 4.78283 15.3521 4.97863 15.675 5.30157L16.5004 6.12695C17.7241 7.35062 18.3359 7.96246 19.0686 8.37009C19.4711 8.59402 19.898 8.77086 20.3409 8.89712C21.1473 9.12695 22.0125 9.12695 23.7431 9.12695H24.3036C26.9721 9.12695 28.7389 9.12695 30.0001 9.48322Z" fill="#006466"/>
<path fill-rule="evenodd" clip-rule="evenodd" d="M18.375 15.127C18.375 14.5056 18.8787 14.002 19.5 14.002H27C27.6213 14.002 28.125 14.5056 28.125 15.127C28.125 15.7483 27.6213 16.252 27 16.252H19.5C18.8787 16.252 18.375 15.7483 18.375 15.127Z" fill="#006466"/>
</svg>
