<svg width="36" height="37" viewBox="0 0 36 37" fill="none" xmlns="http://www.w3.org/2000/svg">
<path d="M12.7586 16.9193C12.7586 15.5385 13.8914 14.4192 15.2887 14.4192C16.686 14.4192 17.8187 15.5385 17.8187 16.9193C17.8187 18.3 16.686 19.4193 15.2887 19.4193C13.8913 19.4193 12.7586 18.3 12.7586 16.9193Z" fill="#006466"/>
<path fill-rule="evenodd" clip-rule="evenodd" d="M3 16.9192C3 12.8785 3 10.8582 4.27036 9.60292C5.54072 8.34766 7.58533 8.34766 11.6745 8.34766H18.9033C22.9926 8.34766 25.0372 8.34766 26.3075 9.60292C27.5779 10.8582 27.5779 12.8785 27.5779 16.9192C27.5779 20.9598 27.5779 22.9801 26.3075 24.2354C25.0372 25.4907 22.9926 25.4907 18.9033 25.4907H11.6745C7.58533 25.4907 5.54072 25.4907 4.27036 24.2354C3 22.9801 3 20.9598 3 16.9192ZM10.59 16.9193C10.59 14.3551 12.6936 12.2764 15.2887 12.2764C17.8837 12.2764 19.9874 14.3551 19.9874 16.9193C19.9874 19.4835 17.8837 21.5622 15.2887 21.5622C12.6936 21.5622 10.59 19.4835 10.59 16.9193ZM6.25269 19.7764C6.25269 20.3682 6.73815 20.8479 7.337 20.8479C7.93586 20.8479 8.42132 20.3682 8.42132 19.7764L8.42132 14.0621C8.42132 13.4704 7.93586 12.9907 7.337 12.9907C6.73815 12.9907 6.25269 13.4704 6.25269 14.0621L6.25269 19.7764ZM23.2403 20.8479C22.6415 20.8479 22.156 20.3682 22.156 19.7764V14.0621C22.156 13.4704 22.6415 12.9907 23.2403 12.9907C23.8392 12.9907 24.3247 13.4704 24.3247 14.0621V19.7764C24.3247 20.3682 23.8392 20.8479 23.2403 20.8479Z" fill="#006466"/>
<path opacity="0.5" d="M6.09766 25.1851C6.11721 25.4115 6.1407 25.6283 6.16892 25.8357C6.34388 27.1216 6.71818 28.2043 7.5884 29.0642C7.7123 29.1866 7.84076 29.2991 7.97373 29.4025C8.82179 30.1734 9.87243 30.5154 11.1086 30.6796C12.3621 30.8462 13.9557 30.8461 15.9329 30.8461H23.3204C25.2976 30.8461 26.8913 30.8462 28.1447 30.6796C29.4461 30.5068 30.5418 30.1369 31.412 29.277C32.2822 28.4171 32.6565 27.3344 32.8315 26.0486C33 24.81 33 23.2353 32.9999 21.2816V21.1248C33 19.1711 33 17.5963 32.8315 16.3578C32.6565 15.0719 32.2822 13.9892 31.412 13.1293C31.2881 13.0069 31.1596 12.8944 31.0267 12.791C30.1786 12.0201 29.128 11.6781 27.8918 11.5139C27.6956 11.4878 27.4911 11.4658 27.278 11.4473C27.5776 12.6973 27.5776 14.4226 27.5776 16.9189C27.5776 20.9595 27.5776 22.9799 26.3073 24.2351C25.0369 25.4904 22.9923 25.4904 18.9031 25.4904H11.6743C9.12172 25.4904 7.36585 25.4904 6.09766 25.1851Z" fill="#006466"/>
</svg>
